<svg width="149" height="50" viewBox="0 0 149 50" fill="none" xmlns="http://www.w3.org/2000/svg">
<g clip-path="url(#clip0_1302_4067)">
<path d="M137.135 3.97995e-05H11.8721C11.4155 3.97995e-05 10.9644 3.97996e-05 10.509 0.0025301C10.1278 0.00502041 9.74965 0.0122547 9.36479 0.0183435C8.52869 0.0281825 7.69455 0.101739 6.86963 0.238374C6.04587 0.377984 5.24791 0.641188 4.50274 1.01908C3.75849 1.40018 3.07845 1.89537 2.48728 2.4867C1.89301 3.07636 1.39764 3.75793 1.02022 4.5052C0.641752 5.25098 0.379324 6.05016 0.241995 6.87512C0.103361 7.69905 0.028761 8.53247 0.0188641 9.36792C0.00730904 9.74968 0.00608879 10.1327 0 10.5145V39.2953C0.00608879 39.6819 0.00730904 40.0565 0.0188641 40.4432C0.028764 41.2786 0.103364 42.112 0.241995 42.9359C0.378945 43.7613 0.641388 44.561 1.02022 45.307C1.39747 46.0519 1.89291 46.7307 2.48728 47.3171C3.0762 47.911 3.75669 48.4066 4.50274 48.7847C5.2479 49.1636 6.04578 49.4284 6.86963 49.5702C7.69469 49.7057 8.52874 49.7793 9.36479 49.7903C9.74965 49.7988 10.1278 49.8036 10.509 49.8036C10.9644 49.8061 11.4156 49.8061 11.8721 49.8061H137.135C137.582 49.8061 138.037 49.8061 138.484 49.8036C138.864 49.8036 139.253 49.7988 139.632 49.7903C140.467 49.7799 141.299 49.7063 142.123 49.5702C142.949 49.4274 143.75 49.1627 144.499 48.7847C145.244 48.4063 145.924 47.9108 146.512 47.3171C147.105 46.7284 147.602 46.0501 147.983 45.307C148.359 44.5604 148.619 43.7608 148.754 42.9359C148.893 42.1119 148.97 41.2787 148.985 40.4432C148.99 40.0565 148.99 39.6819 148.99 39.2953C149 38.8429 149 38.3931 149 37.9334V11.874C149 11.418 149 10.9656 148.99 10.5145C148.99 10.1327 148.99 9.74968 148.985 9.36787C148.97 8.53235 148.893 7.69911 148.754 6.87507C148.619 6.05059 148.359 5.25147 147.983 4.50515C147.215 3.00733 145.996 1.78811 144.499 1.01897C143.75 0.642 142.949 0.378865 142.123 0.238262C141.299 0.101025 140.467 0.0274428 139.632 0.0181692C139.253 0.0120929 138.864 0.00479628 138.484 0.00236823C138.037 -0.00012207 137.582 -0.00012207 137.135 -0.00012207V3.97995e-05Z" fill="black"/>
<path d="M10.515 48.7164C10.1356 48.7164 9.7654 48.7116 9.38901 48.7031C8.60927 48.693 7.83135 48.6251 7.06164 48.5C6.34392 48.3764 5.64865 48.1465 4.99875 47.8178C4.35481 47.4919 3.76748 47.0645 3.25927 46.552C2.7437 46.0455 2.31447 45.4582 1.98858 44.8131C1.6591 44.1639 1.43108 43.468 1.31246 42.7497C1.18437 41.9778 1.11506 41.1973 1.10514 40.415C1.09725 40.1524 1.08691 39.2781 1.08691 39.2781V10.5143C1.08691 10.5143 1.09792 9.65343 1.10521 9.4005C1.1147 8.61939 1.1836 7.84014 1.31132 7.06949C1.43015 6.34919 1.65835 5.65128 1.98801 4.99992C2.3127 4.35532 2.73955 3.7675 3.25201 3.25926C3.7639 2.74618 4.3531 2.31658 4.99814 1.98613C5.64654 1.65851 6.34051 1.43019 7.05677 1.30884C7.82901 1.18254 8.60963 1.11425 9.39207 1.10456L10.5156 1.08936H138.478L139.615 1.10517C140.39 1.11438 141.164 1.18206 141.929 1.30762C142.653 1.4305 143.354 1.6604 144.01 1.98977C145.302 2.65574 146.353 3.70936 147.017 5.00296C147.341 5.64982 147.566 6.34204 147.683 7.05611C147.812 7.83309 147.885 8.61847 147.899 9.40598C147.903 9.7586 147.903 10.1374 147.903 10.5143C147.913 10.9813 147.913 11.4257 147.913 11.8738V37.9332C147.913 38.3855 147.913 38.8269 147.903 39.272C147.903 39.6769 147.903 40.0478 147.898 40.4296C147.884 41.203 147.813 41.9744 147.685 42.7375C147.569 43.461 147.342 44.1623 147.013 44.8169C146.685 45.4549 146.258 46.0372 145.748 46.5423C145.24 47.0575 144.651 47.4874 144.006 47.8154C143.352 48.1466 142.652 48.3774 141.929 48.5C141.159 48.6257 140.381 48.6936 139.602 48.7031C139.237 48.7116 138.855 48.7164 138.484 48.7164L137.134 48.7189L10.515 48.7164Z" fill="black"/>
<path d="M30.8409 25.277C30.8543 24.2377 31.1304 23.2187 31.6434 22.3148C32.1564 21.4109 32.8898 20.6514 33.7752 20.107C33.2127 19.3037 32.4707 18.6426 31.608 18.1762C30.7453 17.7099 29.7858 17.4511 28.8056 17.4204C26.7147 17.2009 24.6876 18.6716 23.6222 18.6716C22.536 18.6716 20.8956 17.4422 19.129 17.4785C17.9864 17.5155 16.8728 17.8477 15.8967 18.443C14.9207 19.0382 14.1155 19.8762 13.5596 20.8751C11.1514 25.0444 12.9477 31.1719 15.2545 34.542C16.4086 36.1923 17.7574 38.0357 19.5224 37.9703C21.2495 37.8987 21.8945 36.869 23.9793 36.869C26.0447 36.869 26.6499 37.9703 28.4506 37.9288C30.3039 37.8987 31.4715 36.2712 32.5852 34.6053C33.4144 33.4294 34.0525 32.1298 34.4758 30.7546C33.3991 30.2992 32.4803 29.537 31.8339 28.5629C31.1875 27.5888 30.8422 26.446 30.8409 25.277V25.277Z" fill="white"/>
<path d="M27.4394 15.2041C28.4499 13.9911 28.9477 12.4319 28.8272 10.8578C27.2834 11.0199 25.8574 11.7578 24.8333 12.9243C24.3325 13.4941 23.949 14.1571 23.7047 14.8752C23.4603 15.5934 23.3599 16.3527 23.4092 17.1097C24.1813 17.1176 24.9452 16.9503 25.6433 16.6202C26.3415 16.2901 26.9556 15.806 27.4394 15.2041Z" fill="white"/>
<path d="M52.6728 33.7924H46.779L45.3636 37.9717H42.8672L48.4497 22.5094H51.0434L56.6259 37.9717H54.0869L52.6728 33.7924ZM47.3894 31.8639H52.0612L49.7581 25.0812H49.6937L47.3894 31.8639Z" fill="white"/>
<path d="M68.6816 32.3358C68.6816 35.839 66.8066 38.0897 63.977 38.0897C63.2602 38.1272 62.5474 37.9621 61.9201 37.6133C61.2928 37.2645 60.7764 36.7461 60.43 36.1174H60.3765V41.7011H58.0625V26.6985H60.3024V28.5735H60.3449C60.7072 27.9479 61.2323 27.4322 61.8644 27.0812C62.4965 26.7303 63.2119 26.5573 63.9345 26.5806C66.7956 26.5806 68.6816 28.8423 68.6816 32.3358ZM66.3032 32.3358C66.3032 30.0534 65.1237 28.5529 63.324 28.5529C61.556 28.5529 60.3668 30.085 60.3668 32.3358C60.3668 34.6072 61.556 36.1284 63.324 36.1284C65.1237 36.1284 66.3032 34.6388 66.3032 32.3358Z" fill="white"/>
<path d="M81.0893 32.3358C81.0893 35.839 79.2143 38.0897 76.3847 38.0897C75.6679 38.1272 74.9551 37.9621 74.3278 37.6133C73.7005 37.2645 73.1841 36.7461 72.8377 36.1174H72.7842V41.7011H70.4702V26.6985H72.71V28.5735H72.7526C73.1149 27.9479 73.64 27.4322 74.2721 27.0812C74.9041 26.7303 75.6195 26.5573 76.3421 26.5806C79.2033 26.5806 81.0893 28.8423 81.0893 32.3358ZM78.7109 32.3358C78.7109 30.0534 77.5314 28.5529 75.7317 28.5529C73.9637 28.5529 72.7745 30.085 72.7745 32.3358C72.7745 34.6072 73.9637 36.1284 75.7317 36.1284C77.5314 36.1284 78.7109 34.6388 78.7109 32.3358H78.7109Z" fill="white"/>
<path d="M89.2901 33.6635C89.4616 35.1969 90.9512 36.2036 92.9867 36.2036C94.9371 36.2036 96.3403 35.1968 96.3403 33.8142C96.3403 32.6141 95.494 31.8955 93.4901 31.403L91.4862 30.9202C88.6469 30.2344 87.3288 28.9066 87.3288 26.7519C87.3288 24.0841 89.6537 22.2516 92.9551 22.2516C96.2223 22.2516 98.4622 24.0841 98.5376 26.7519H96.2017C96.0618 25.2088 94.7863 24.2774 92.9222 24.2774C91.0581 24.2774 89.7826 25.2198 89.7826 26.5914C89.7826 27.6845 90.5973 28.3278 92.5902 28.8202L94.2938 29.2385C97.4663 29.9888 98.7844 31.2631 98.7844 33.5248C98.7844 36.4176 96.4801 38.2294 92.8152 38.2294C89.3862 38.2294 87.071 36.4601 86.9214 33.6634L89.2901 33.6635Z" fill="white"/>
<path d="M103.779 24.0306V26.6985H105.923V28.5309H103.779V34.7458C103.779 35.7112 104.208 36.1611 105.151 36.1611C105.405 36.1567 105.659 36.1388 105.912 36.1076V37.9291C105.488 38.0083 105.057 38.0441 104.627 38.0361C102.344 38.0361 101.454 37.1789 101.454 34.9926V28.5309H99.8149V26.6985H101.454V24.0306H103.779Z" fill="white"/>
<path d="M107.164 32.3357C107.164 28.7887 109.253 26.5598 112.511 26.5598C115.779 26.5598 117.859 28.7886 117.859 32.3357C117.859 35.8924 115.79 38.1115 112.511 38.1115C109.232 38.1115 107.164 35.8924 107.164 32.3357ZM115.501 32.3357C115.501 29.9025 114.386 28.4665 112.511 28.4665C110.636 28.4665 109.522 29.9135 109.522 32.3357C109.522 34.7785 110.636 36.2037 112.511 36.2037C114.386 36.2037 115.501 34.7785 115.501 32.3357H115.501Z" fill="white"/>
<path d="M119.767 26.6984H121.974V28.6172H122.027C122.176 28.0179 122.528 27.4883 123.021 27.1174C123.515 26.7465 124.122 26.5569 124.739 26.5805C125.005 26.5795 125.271 26.6085 125.532 26.6668V28.8312C125.195 28.7283 124.844 28.6811 124.492 28.6914C124.156 28.6777 123.821 28.737 123.509 28.8651C123.198 28.9932 122.919 29.1871 122.69 29.4336C122.461 29.68 122.287 29.973 122.182 30.2926C122.077 30.6122 122.043 30.9508 122.081 31.285V37.9717H119.767L119.767 26.6984Z" fill="white"/>
<path d="M136.2 34.6606C135.889 36.7071 133.896 38.1115 131.346 38.1115C128.067 38.1115 126.031 35.9143 126.031 32.3892C126.031 28.8531 128.078 26.5598 131.249 26.5598C134.368 26.5598 136.329 28.7023 136.329 32.1204V32.9133H128.367V33.0531C128.33 33.468 128.382 33.8859 128.52 34.2792C128.657 34.6725 128.876 35.032 129.163 35.3341C129.45 35.6361 129.797 35.8736 130.183 36.0309C130.569 36.1881 130.984 36.2615 131.4 36.2462C131.947 36.2975 132.495 36.1708 132.964 35.8851C133.433 35.5994 133.798 35.17 134.003 34.6606L136.2 34.6606ZM128.378 31.296H134.014C134.035 30.923 133.978 30.5497 133.848 30.1995C133.718 29.8494 133.516 29.5299 133.257 29.2613C132.997 28.9926 132.685 28.7805 132.339 28.6383C131.994 28.4961 131.623 28.4268 131.249 28.4348C130.872 28.4326 130.499 28.505 130.15 28.6479C129.801 28.7907 129.484 29.0012 129.217 29.2673C128.95 29.5333 128.739 29.8495 128.595 30.1977C128.451 30.5459 128.377 30.9192 128.378 31.296V31.296Z" fill="white"/>
<path d="M47.0997 10.8716C47.5848 10.8368 48.0716 10.9101 48.525 11.0862C48.9783 11.2623 49.387 11.5368 49.7214 11.89C50.0558 12.2431 50.3077 12.6661 50.4589 13.1284C50.6101 13.5907 50.6567 14.0808 50.5956 14.5633C50.5956 16.9368 49.3127 18.3012 47.0997 18.3012H44.416V10.8716H47.0997ZM45.57 17.2505H46.9708C47.3174 17.2712 47.6643 17.2144 47.9862 17.0841C48.3082 16.9539 48.597 16.7535 48.8317 16.4975C49.0664 16.2415 49.2411 15.9365 49.343 15.6045C49.4449 15.2725 49.4716 14.922 49.4209 14.5784C49.4679 14.2362 49.4386 13.8878 49.3351 13.5583C49.2316 13.2287 49.0565 12.9262 48.8223 12.6722C48.5881 12.4183 48.3007 12.2193 47.9806 12.0895C47.6605 11.9598 47.3156 11.9024 46.9708 11.9215H45.57V17.2505Z" fill="white"/>
<path d="M51.8997 15.4953C51.8645 15.1269 51.9066 14.7551 52.0235 14.4039C52.1403 14.0527 52.3293 13.7297 52.5782 13.4558C52.8272 13.1819 53.1306 12.9631 53.4691 12.8133C53.8076 12.6635 54.1737 12.5862 54.5438 12.5862C54.914 12.5862 55.28 12.6635 55.6185 12.8133C55.957 12.9631 56.2605 13.1819 56.5095 13.4558C56.7584 13.7297 56.9474 14.0527 57.0642 14.4039C57.1811 14.7551 57.2232 15.1269 57.188 15.4953C57.2239 15.8642 57.1822 16.2364 57.0657 16.5882C56.9492 16.94 56.7603 17.2635 56.5113 17.538C56.2623 17.8124 55.9586 18.0317 55.6197 18.1818C55.2809 18.3319 54.9144 18.4094 54.5438 18.4094C54.1733 18.4094 53.8068 18.3319 53.4679 18.1818C53.1291 18.0317 52.8254 17.8124 52.5764 17.538C52.3274 17.2635 52.1385 16.94 52.022 16.5882C51.9054 16.2364 51.8638 15.8642 51.8997 15.4953V15.4953ZM56.0498 15.4953C56.0498 14.28 55.5038 13.5692 54.5457 13.5692C53.5838 13.5692 53.0428 14.28 53.0428 15.4953C53.0428 16.7204 53.5839 17.4257 54.5457 17.4257C55.5039 17.4257 56.0498 16.7156 56.0498 15.4953H56.0498Z" fill="white"/>
<path d="M64.2169 18.3013H63.0691L61.9103 14.1719H61.8227L60.6688 18.3013H59.5318L57.9863 12.6945H59.1087L60.1131 16.9728H60.1958L61.3485 12.6945H62.41L63.5628 16.9728H63.6503L64.6498 12.6945H65.7564L64.2169 18.3013Z" fill="white"/>
<path d="M67.0557 12.6943H68.1209V13.585H68.2035C68.3438 13.2651 68.5804 12.9969 68.8803 12.8179C69.1802 12.6388 69.5286 12.5578 69.8767 12.5861C70.1495 12.5656 70.4235 12.6067 70.6782 12.7064C70.933 12.8062 71.162 12.9619 71.3484 13.1622C71.5348 13.3625 71.6737 13.6021 71.7549 13.8634C71.8361 14.1247 71.8574 14.4008 71.8174 14.6715V18.3011H70.7109V14.9493C70.7109 14.0483 70.3193 13.6002 69.501 13.6002C69.3158 13.5916 69.1309 13.6231 68.9589 13.6926C68.787 13.7621 68.6322 13.868 68.5051 14.003C68.3779 14.1379 68.2814 14.2988 68.2222 14.4745C68.1631 14.6502 68.1426 14.8367 68.1622 15.0211V18.3011H67.0557L67.0557 12.6943Z" fill="white"/>
<path d="M73.5806 10.5057H74.6871V18.3013H73.5806V10.5057Z" fill="white"/>
<path d="M76.2263 15.4954C76.1911 15.1269 76.2333 14.7552 76.3502 14.4039C76.467 14.0527 76.656 13.7298 76.905 13.4558C77.154 13.1819 77.4575 12.9631 77.796 12.8133C78.1345 12.6635 78.5006 12.5862 78.8708 12.5862C79.2409 12.5862 79.607 12.6635 79.9455 12.8133C80.2841 12.9631 80.5875 13.1819 80.8365 13.4558C81.0855 13.7298 81.2745 14.0527 81.3914 14.4039C81.5082 14.7552 81.5504 15.1269 81.5152 15.4954C81.5511 15.8643 81.5094 16.2366 81.3928 16.5884C81.2762 16.9401 81.0874 17.2636 80.8383 17.5381C80.5893 17.8125 80.2856 18.0318 79.9467 18.1819C79.6079 18.332 79.2414 18.4095 78.8708 18.4095C78.5002 18.4095 78.1337 18.332 77.7948 18.1819C77.456 18.0318 77.1523 17.8125 76.9032 17.5381C76.6542 17.2636 76.4653 16.9401 76.3487 16.5884C76.2322 16.2366 76.1905 15.8643 76.2263 15.4954V15.4954ZM80.3764 15.4954C80.3764 14.2801 79.8305 13.5693 78.8723 13.5693C77.9105 13.5693 77.3694 14.2801 77.3694 15.4954C77.3694 16.7205 77.9105 17.4258 78.8723 17.4258C79.8305 17.4258 80.3764 16.7157 80.3764 15.4954H80.3764Z" fill="white"/>
<path d="M82.6792 16.7156C82.6792 15.7063 83.4307 15.1245 84.7646 15.0418L86.2833 14.9543V14.4703C86.2833 13.8781 85.8918 13.5438 85.1355 13.5438C84.5177 13.5438 84.0897 13.7705 83.9669 14.1669H82.8956C83.0087 13.2039 83.9146 12.5862 85.1865 12.5862C86.5922 12.5862 87.385 13.286 87.385 14.4703V18.3012H86.3198V17.5133H86.2323C86.0546 17.7959 85.805 18.0263 85.5091 18.181C85.2133 18.3357 84.8816 18.409 84.5481 18.3936C84.3128 18.4181 84.0749 18.393 83.8498 18.3199C83.6247 18.2468 83.4175 18.1274 83.2414 17.9693C83.0653 17.8112 82.9243 17.6179 82.8275 17.402C82.7306 17.1861 82.6801 16.9522 82.6792 16.7156V16.7156ZM86.2833 16.2365V15.7678L84.9142 15.8553C84.142 15.907 83.7918 16.1696 83.7918 16.6639C83.7918 17.1685 84.2295 17.4622 84.8315 17.4622C85.0079 17.4801 85.186 17.4622 85.3554 17.4098C85.5247 17.3574 85.6818 17.2715 85.8173 17.1571C85.9527 17.0428 86.0638 16.9023 86.1438 16.7442C86.2239 16.586 86.2714 16.4134 86.2833 16.2365V16.2365Z" fill="white"/>
<path d="M88.8394 15.4955C88.8394 13.7238 89.7501 12.6015 91.1667 12.6015C91.5171 12.5853 91.8649 12.6693 92.1694 12.8434C92.4738 13.0176 92.7224 13.2749 92.8861 13.5851H92.9688V10.5057H94.0753V18.3013H93.015V17.4155H92.9275C92.7511 17.7236 92.4939 17.9777 92.1835 18.1501C91.8732 18.3226 91.5215 18.4068 91.1667 18.3937C89.7404 18.3938 88.8394 17.2714 88.8394 15.4955ZM89.9824 15.4955C89.9824 16.6847 90.543 17.4003 91.4805 17.4003C92.4131 17.4003 92.9895 16.6744 92.9895 15.5004C92.9895 14.3318 92.4071 13.5955 91.4805 13.5955C90.549 13.5955 89.9824 14.316 89.9824 15.4955H89.9824Z" fill="white"/>
<path d="M98.6536 15.4953C98.6184 15.1269 98.6605 14.7551 98.7774 14.4039C98.8942 14.0527 99.0832 13.7297 99.3321 13.4558C99.5811 13.1819 99.8845 12.9631 100.223 12.8133C100.562 12.6635 100.928 12.5862 101.298 12.5862C101.668 12.5862 102.034 12.6635 102.372 12.8133C102.711 12.9631 103.014 13.1819 103.263 13.4558C103.512 13.7297 103.701 14.0527 103.818 14.4039C103.935 14.7551 103.977 15.1269 103.942 15.4953C103.978 15.8642 103.936 16.2364 103.82 16.5882C103.703 16.94 103.514 17.2635 103.265 17.538C103.016 17.8124 102.712 18.0317 102.374 18.1818C102.035 18.3319 101.668 18.4094 101.298 18.4094C100.927 18.4094 100.561 18.3319 100.222 18.1818C99.883 18.0317 99.5793 17.8124 99.3303 17.538C99.0813 17.2635 98.8924 16.94 98.7759 16.5882C98.6593 16.2364 98.6177 15.8642 98.6536 15.4953V15.4953ZM102.804 15.4953C102.804 14.28 102.258 13.5692 101.3 13.5692C100.338 13.5692 99.7967 14.28 99.7967 15.4953C99.7967 16.7204 100.338 17.4257 101.3 17.4257C102.258 17.4257 102.804 16.7156 102.804 15.4953Z" fill="white"/>
<path d="M105.427 12.6943H106.492V13.585H106.575C106.715 13.2651 106.951 12.9969 107.251 12.8179C107.551 12.6388 107.9 12.5578 108.248 12.5861C108.521 12.5656 108.795 12.6067 109.049 12.7064C109.304 12.8062 109.533 12.9619 109.719 13.1622C109.906 13.3625 110.045 13.6021 110.126 13.8634C110.207 14.1247 110.229 14.4008 110.188 14.6715V18.3011H109.082V14.9493C109.082 14.0483 108.69 13.6002 107.872 13.6002C107.687 13.5916 107.502 13.6231 107.33 13.6926C107.158 13.7621 107.003 13.868 106.876 14.003C106.749 14.1379 106.653 14.2988 106.593 14.4745C106.534 14.6502 106.514 14.8367 106.533 15.0211V18.3011H105.427V12.6943Z" fill="white"/>
<path d="M116.441 11.2985V12.7199H117.655V13.652H116.441V16.535C116.441 17.1224 116.683 17.3795 117.234 17.3795C117.375 17.3791 117.515 17.3705 117.655 17.354V18.2757C117.457 18.3112 117.255 18.3301 117.054 18.3322C115.823 18.3322 115.333 17.8993 115.333 16.8183V13.6519H114.443V12.7199H115.333V11.2985H116.441Z" fill="white"/>
<path d="M119.167 10.5057H120.264V13.5955H120.352C120.499 13.2726 120.742 13.0029 121.048 12.8232C121.354 12.6435 121.708 12.5624 122.061 12.5911C122.333 12.5764 122.604 12.6217 122.856 12.7238C123.108 12.826 123.334 12.9825 123.519 13.1821C123.703 13.3818 123.841 13.6196 123.923 13.8788C124.005 14.138 124.029 14.412 123.992 14.6814V18.3013H122.885V14.9544C122.885 14.0588 122.468 13.6052 121.686 13.6052C121.496 13.5896 121.304 13.6158 121.125 13.6818C120.946 13.7479 120.784 13.8523 120.649 13.9877C120.515 14.1231 120.412 14.2862 120.347 14.4657C120.282 14.6452 120.257 14.8366 120.274 15.0267V18.3013H119.168L119.167 10.5057Z" fill="white"/>
<path d="M130.444 16.7874C130.293 17.2999 129.968 17.7431 129.524 18.0397C129.079 18.3362 128.545 18.4671 128.014 18.4095C127.645 18.4193 127.278 18.3485 126.939 18.2022C126.599 18.0559 126.296 17.8374 126.049 17.5621C125.803 17.2867 125.619 16.9611 125.511 16.6077C125.404 16.2543 125.374 15.8816 125.424 15.5155C125.375 15.1484 125.405 14.7749 125.513 14.4204C125.621 14.066 125.803 13.7388 126.048 13.461C126.294 13.1833 126.596 12.9614 126.934 12.8105C127.272 12.6596 127.639 12.5831 128.009 12.5863C129.57 12.5863 130.511 13.6521 130.511 15.4128V15.7989H126.551V15.8609C126.534 16.0666 126.56 16.2738 126.627 16.4689C126.695 16.6641 126.802 16.843 126.943 16.9943C127.083 17.1455 127.254 17.2657 127.444 17.3471C127.634 17.4286 127.838 17.4694 128.045 17.4671C128.309 17.4989 128.578 17.4513 128.815 17.3302C129.053 17.2092 129.249 17.0202 129.379 16.7874L130.444 16.7874ZM126.551 14.9805H129.383C129.397 14.7923 129.372 14.6033 129.308 14.4256C129.245 14.2479 129.145 14.0854 129.015 13.9487C128.885 13.8119 128.728 13.7038 128.554 13.6313C128.379 13.5589 128.192 13.5237 128.003 13.528C127.812 13.5256 127.622 13.5616 127.445 13.6337C127.267 13.7059 127.106 13.8128 126.971 13.9481C126.836 14.0835 126.729 14.2446 126.657 14.4219C126.585 14.5992 126.549 14.7891 126.551 14.9805H126.551Z" fill="white"/>
</g>
<defs>
<clipPath id="clip0_1302_4067">
<rect width="149" height="49.8061" fill="white"/>
</clipPath>
</defs>
</svg>
