<svg width="169" height="50" viewBox="0 0 169 50" fill="none" xmlns="http://www.w3.org/2000/svg">
<g clip-path="url(#clip0_1302_4103)">
<path fill-rule="evenodd" clip-rule="evenodd" d="M162.498 50H6.2523C2.80639 50 0 47.182 0 43.75V6.25C0 2.80549 2.80639 0 6.2523 0H162.498C165.94 0 168.75 2.80549 168.75 6.25V43.75C168.75 47.182 165.94 50 162.498 50Z" fill="black"/>
<path fill-rule="evenodd" clip-rule="evenodd" d="M162.498 1.00062C165.388 1.00062 167.753 3.36035 167.753 6.25V43.75C167.753 46.6397 165.403 48.9994 162.498 48.9994H6.2523C3.36209 48.9994 0.996518 46.6397 0.996518 43.75V6.25C0.996518 3.36035 3.34656 1.00062 6.2523 1.00062C6.2523 1.00062 162.498 1.00062 162.498 1.00062ZM162.498 0H6.2523C2.80639 0 0 2.81796 0 6.25V43.75C0 47.1945 2.80639 50 6.2523 50H162.498C165.94 50 168.75 47.1945 168.75 43.75V6.25C168.75 2.81796 165.94 0 162.498 0Z" fill="black"/>
<path d="M88.898 16.5399C87.7711 16.5399 86.8211 16.1441 86.0698 15.3648C85.3248 14.6073 84.9088 13.563 84.9274 12.4969C84.9274 11.3592 85.3124 10.3959 86.0698 9.63222C86.818 8.85292 87.768 8.45703 88.8949 8.45703C90.0093 8.45703 90.9593 8.85292 91.723 9.63222C92.4804 10.4209 92.8654 11.3841 92.8654 12.4969C92.853 13.6378 92.468 14.601 91.723 15.3616C90.9748 16.1472 90.0249 16.5399 88.898 16.5399ZM55.3673 16.5399C54.2653 16.5399 53.3091 16.1503 52.5268 15.3803C51.7507 14.6135 51.3564 13.6441 51.3564 12.5C51.3564 11.356 51.7507 10.3866 52.5268 9.61975C53.2936 8.8498 54.2497 8.46015 55.3673 8.46015C55.9137 8.46015 56.4446 8.56925 56.9537 8.79057C57.4535 9.00566 57.8602 9.29868 58.1613 9.65716L58.2358 9.74756L57.3945 10.5767L57.3076 10.4739C56.8326 9.90653 56.1962 9.6291 55.3549 9.6291C54.6036 9.6291 53.9486 9.89718 53.4085 10.4271C52.8652 10.9601 52.5889 11.6584 52.5889 12.5032C52.5889 13.3479 52.8652 14.0462 53.4085 14.5792C53.9486 15.1092 54.6036 15.3772 55.3549 15.3772C56.1558 15.3772 56.8295 15.1092 57.3541 14.5792C57.6646 14.2675 57.8571 13.8311 57.9254 13.2794H55.2276V12.1135H59.0833L59.0988 12.2195C59.1268 12.4159 59.1547 12.6185 59.1547 12.8055C59.1547 13.881 58.8318 14.7507 58.1923 15.3928C57.4659 16.1534 56.516 16.5399 55.3673 16.5399ZM99.9496 16.3747H98.7606L95.1192 10.5237L95.1502 11.5774V16.3716H93.9612V8.62536H95.3179L95.3551 8.68459L98.7793 14.1958L98.7482 13.1453V8.62536H99.9496V16.3747V16.3747ZM79.9635 16.3747H78.759V9.7912H76.6697V8.62536H82.0496V9.7912H79.9604V16.3747H79.9635ZM75.6887 16.3747H74.4873V8.62536H75.6887V16.3747ZM68.9367 16.3747H67.7353V9.7912H65.646V8.62536H71.0259V9.7912H68.9367V16.3747ZM64.8854 16.3623H60.2785V8.62536H64.8854V9.7912H61.483V11.9171H64.5532V13.0705H61.483V15.1964H64.8854V16.3623ZM86.9515 14.5636C87.4886 15.1029 88.1405 15.3741 88.898 15.3741C89.6772 15.3741 90.3136 15.1092 90.8444 14.5636C91.3722 14.0337 91.6391 13.3386 91.6391 12.5C91.6391 11.6615 91.3722 10.9633 90.8475 10.4365C90.3105 9.89718 89.6554 9.62598 88.9011 9.62598C88.1219 9.62598 87.4855 9.89095 86.9577 10.4365C86.43 10.9664 86.163 11.6615 86.163 12.5C86.163 13.3386 86.4269 14.0368 86.9515 14.5636Z" fill="white"/>
<path fill-rule="evenodd" clip-rule="evenodd" d="M84.816 27.1946C81.8823 27.1946 79.5043 29.4297 79.5043 32.5126C79.5043 35.5675 81.8979 37.8305 84.816 37.8305C87.7497 37.8305 90.1277 35.5799 90.1277 32.5126C90.1277 29.4297 87.7497 27.1946 84.816 27.1946ZM84.816 35.7233C83.211 35.7233 81.8296 34.3892 81.8296 32.5001C81.8296 30.583 83.2141 29.2769 84.816 29.2769C86.421 29.2769 87.8025 30.583 87.8025 32.5001C87.8056 34.4016 86.421 35.7233 84.816 35.7233ZM73.2272 27.1946C70.2935 27.1946 67.9155 29.4297 67.9155 32.5126C67.9155 35.5675 70.309 37.8305 73.2272 37.8305C76.1609 37.8305 78.5389 35.5799 78.5389 32.5126C78.5389 29.4297 76.1578 27.1946 73.2272 27.1946ZM73.2272 35.7233C71.6222 35.7233 70.2408 34.3892 70.2408 32.5001C70.2408 30.583 71.6253 29.2769 73.2272 29.2769C74.8322 29.2769 76.2137 30.583 76.2137 32.5001C76.2137 34.4016 74.8322 35.7233 73.2272 35.7233ZM59.4374 28.8187V31.0693H64.8173C64.6528 32.3318 64.2368 33.2638 63.6004 33.9029C62.8119 34.6946 61.5949 35.555 59.4498 35.555C56.1436 35.555 53.5576 32.8742 53.5576 29.5544C53.5576 26.2345 56.1436 23.5537 59.4498 23.5537C61.2348 23.5537 62.5356 24.2613 63.501 25.1653L65.0905 23.5693C63.7494 22.2788 61.9644 21.2906 59.4622 21.2906C54.9266 21.2906 51.1206 25.0001 51.1206 29.5419C51.1206 34.0961 54.9235 37.7931 59.4622 37.7931C61.9116 37.7931 63.7494 36.9889 65.2023 35.4739C66.6831 33.987 67.1519 31.8892 67.1519 30.1965C67.1519 29.6697 67.1115 29.1959 67.0277 28.7938H59.4343C59.4374 28.7906 59.4374 28.8187 59.4374 28.8187ZM115.842 30.5706C115.398 29.3767 114.057 27.1822 111.306 27.1822C108.58 27.1822 106.314 29.3362 106.314 32.5001C106.314 35.4864 108.556 37.8181 111.57 37.8181C113.991 37.8181 115.401 36.3312 115.981 35.4584L114.184 34.2489C113.588 35.1373 112.759 35.7202 111.582 35.7202C110.393 35.7202 109.561 35.1778 109.009 34.1086L116.09 31.1628C116.09 31.166 115.842 30.5706 115.842 30.5706ZM108.621 32.3474C108.565 30.2931 110.21 29.2489 111.387 29.2489C112.315 29.2489 113.088 29.7071 113.352 30.3742L108.621 32.3474ZM102.868 37.5001H105.193V21.8767H102.868V37.5001ZM99.0498 28.3761H98.966C98.4413 27.7495 97.4448 27.1822 96.172 27.1822C93.5301 27.1822 91.0963 29.517 91.0963 32.5157C91.0963 35.502 93.5177 37.8087 96.172 37.8087C97.4293 37.8087 98.4413 37.2383 98.966 36.5992H99.0498V37.363C99.0498 39.3923 97.9695 40.4864 96.2279 40.4864C94.8029 40.4864 93.9182 39.4577 93.5581 38.5974L91.5371 39.4453C92.1176 40.848 93.6667 42.5843 96.2248 42.5843C98.9505 42.5843 101.26 40.9727 101.26 37.0419V27.5001H99.0622V28.3761C99.0653 28.3761 99.0498 28.3761 99.0498 28.3761ZM96.38 35.7233C94.775 35.7233 93.4339 34.3767 93.4339 32.5157C93.4339 30.6392 94.775 29.28 96.38 29.28C97.9695 29.28 99.2019 30.6547 99.2019 32.5157C99.2174 34.3767 97.9726 35.7233 96.38 35.7233ZM126.729 21.8767H121.169V37.5001H123.494V31.5837H126.732C129.306 31.5837 131.836 29.7102 131.836 26.7364C131.836 23.7626 129.315 21.8767 126.729 21.8767ZM126.797 29.4016H123.491V24.04H126.797C128.539 24.04 129.523 25.4833 129.523 26.7208C129.523 27.9459 128.526 29.4016 126.797 29.4016ZM141.155 27.1666C139.466 27.1666 137.725 27.9178 137.004 29.5544L139.066 30.4147C139.51 29.5544 140.323 29.2613 141.183 29.2613C142.388 29.2613 143.604 29.9845 143.632 31.2751V31.4403C143.216 31.2034 142.304 30.8418 141.211 30.8418C138.985 30.8418 136.728 32.0637 136.728 34.3549C136.728 36.4527 138.554 37.7994 140.587 37.7994C142.149 37.7994 143.008 37.0918 143.545 36.2719H143.629V37.4814H145.871V31.4964C145.871 28.7096 143.809 27.1666 141.155 27.1666ZM140.863 35.7233C140.103 35.7233 139.038 35.3492 139.038 34.3891C139.038 33.1797 140.367 32.7214 141.5 32.7214C142.524 32.7214 143.008 32.9428 143.617 33.2483C143.449 34.651 142.27 35.7108 140.863 35.7233ZM154.048 27.5001L151.378 34.2769H151.294L148.528 27.5001H146.026L150.177 36.9733L147.811 42.2383H150.232L156.618 27.5001H154.048ZM133.118 37.5001H135.443V21.8767H133.118V37.5001Z" fill="white"/>
<path fill-rule="evenodd" clip-rule="evenodd" d="M12.989 9.41681C12.6289 9.80646 12.4209 10.4018 12.4209 11.1811V38.8214C12.4209 39.6007 12.6289 40.1961 13.0014 40.5702L13.0977 40.6543L28.5204 25.1681V24.822L13.0852 9.33264L12.989 9.41681Z" fill="url(#paint0_linear_1302_4103)"/>
<path fill-rule="evenodd" clip-rule="evenodd" d="M33.6514 30.3462L28.5073 25.181V24.8194L33.6514 19.6542L33.7631 19.7228L39.8478 23.1953C41.5894 24.1804 41.5894 25.8075 39.8478 26.805L33.7631 30.2776L33.6514 30.3462Z" fill="url(#paint1_linear_1302_4103)"/>
<path fill-rule="evenodd" clip-rule="evenodd" d="M33.764 30.2774L28.5083 25L12.9893 40.5829C13.5574 41.1939 14.5104 41.2625 15.5752 40.6671L33.764 30.2774Z" fill="url(#paint2_linear_1302_4103)"/>
<path fill-rule="evenodd" clip-rule="evenodd" d="M33.764 19.7227L15.5752 9.34861C14.5104 8.73764 13.5543 8.8218 12.9893 9.43278L28.5083 25.0001L33.764 19.7227Z" fill="url(#paint3_linear_1302_4103)"/>
<path opacity="0.2" fill-rule="evenodd" clip-rule="evenodd" d="M33.6522 30.1652L15.5875 40.4706C14.5785 41.0535 13.6782 41.013 13.0977 40.4831L13.0015 40.5797L13.0977 40.6639C13.6782 41.1907 14.5785 41.2343 15.5875 40.6514L33.7763 30.2774L33.6522 30.1652Z" fill="black"/>
<path opacity="0.12" fill-rule="evenodd" clip-rule="evenodd" d="M39.8482 26.6241L33.6362 30.1652L33.748 30.2774L39.8326 26.8049C40.705 26.3061 41.1334 25.6515 41.1334 25C41.0806 25.5985 40.6367 26.1658 39.8482 26.6241Z" fill="black"/>
<path opacity="0.25" fill-rule="evenodd" clip-rule="evenodd" d="M15.575 9.52948L39.8484 23.3761C40.637 23.8219 41.0809 24.4048 41.1492 25.0002C41.1492 24.3487 40.7208 23.6941 39.8484 23.1953L15.575 9.34869C13.8334 8.34806 12.4209 9.18347 12.4209 11.1816V11.3624C12.4209 9.36115 13.8334 8.54133 15.575 9.52948Z" fill="white"/>
</g>
<defs>
<linearGradient id="paint0_linear_1302_4103" x1="27.137" y1="10.8829" x2="2.41902" y2="17.4421" gradientUnits="userSpaceOnUse">
<stop stop-color="#00A0FF"/>
<stop offset="0.00657" stop-color="#00A1FF"/>
<stop offset="0.2601" stop-color="#00BEFF"/>
<stop offset="0.5122" stop-color="#00D2FF"/>
<stop offset="0.7604" stop-color="#00DFFF"/>
<stop offset="1" stop-color="#00E3FF"/>
</linearGradient>
<linearGradient id="paint1_linear_1302_4103" x1="42.119" y1="25.0002" x2="11.9968" y2="25.0002" gradientUnits="userSpaceOnUse">
<stop stop-color="#FFE000"/>
<stop offset="0.4087" stop-color="#FFBD00"/>
<stop offset="0.7754" stop-color="#FFA500"/>
<stop offset="1" stop-color="#FF9C00"/>
</linearGradient>
<linearGradient id="paint2_linear_1302_4103" x1="30.9061" y1="27.8717" x2="10.9527" y2="61.3173" gradientUnits="userSpaceOnUse">
<stop stop-color="#FF3A44"/>
<stop offset="1" stop-color="#C31162"/>
</linearGradient>
<linearGradient id="paint3_linear_1302_4103" x1="9.08141" y1="0.223598" x2="17.9835" y2="15.161" gradientUnits="userSpaceOnUse">
<stop stop-color="#32A071"/>
<stop offset="0.0685" stop-color="#2DA771"/>
<stop offset="0.4762" stop-color="#15CF74"/>
<stop offset="0.8009" stop-color="#06E775"/>
<stop offset="1" stop-color="#00F076"/>
</linearGradient>
<clipPath id="clip0_1302_4103">
<rect width="168.75" height="50" fill="white"/>
</clipPath>
</defs>
</svg>
