<svg width="56" height="56" viewBox="0 0 56 56" fill="none" xmlns="http://www.w3.org/2000/svg">
<g clip-path="url(#clip0_1302_3862)">
<path d="M46.6669 37.0658C46.5228 37.2107 46.3514 37.3258 46.1627 37.4043C45.9739 37.4828 45.7715 37.5232 45.5671 37.5232C45.3627 37.5232 45.1603 37.4828 44.9716 37.4043C44.7828 37.3258 44.6115 37.2107 44.4673 37.0658L42.2678 34.8662C42.1228 34.7221 42.0078 34.5508 41.9293 34.362C41.8508 34.1733 41.8104 33.9709 41.8104 33.7665C41.8104 33.5621 41.8508 33.3597 41.9293 33.1709C42.0078 32.9822 42.1228 32.8108 42.2678 32.6667L46.6669 28.2676C46.8112 28.123 46.9826 28.0083 47.1714 27.93C47.3601 27.8518 47.5624 27.8115 47.7667 27.8115C47.971 27.8115 48.1732 27.8518 48.362 27.93C48.5507 28.0083 48.7221 28.123 48.8664 28.2676L51.066 30.4671C51.2109 30.6113 51.326 30.7826 51.4045 30.9714C51.483 31.1601 51.5234 31.3625 51.5234 31.5669C51.5234 31.7713 51.483 31.9737 51.4045 32.1625C51.326 32.3512 51.2109 32.5226 51.066 32.6667L46.6669 37.0658ZM23.3335 13.7325C23.1894 13.8774 23.0181 13.9925 22.8293 14.0709C22.6406 14.1494 22.4382 14.1899 22.2338 14.1899C22.0294 14.1899 21.827 14.1494 21.6382 14.0709C21.4495 13.9925 21.2781 13.8774 21.134 13.7325L18.9344 11.5329C18.7895 11.3888 18.6745 11.2174 18.596 11.0287C18.5175 10.8399 18.4771 10.6375 18.4771 10.4331C18.4771 10.2287 18.5175 10.0263 18.596 9.83758C18.6745 9.64884 18.7895 9.47748 18.9344 9.33335L23.3335 4.93424C23.4779 4.78966 23.6493 4.67496 23.838 4.59669C24.0267 4.51843 24.229 4.47815 24.4333 4.47815C24.6376 4.47815 24.8399 4.51843 25.0286 4.59669C25.2173 4.67496 25.3888 4.78966 25.5331 4.93424L27.7327 7.1338C27.8776 7.27792 27.9926 7.44928 28.0711 7.63802C28.1496 7.82677 28.19 8.02916 28.19 8.23357C28.19 8.43799 28.1496 8.64038 28.0711 8.82912C27.9926 9.01786 27.8776 9.18922 27.7327 9.33335L23.3335 13.7325Z" fill="#66757F"/>
<path d="M3.11102 34.2222C6.22213 34.2222 20.2221 35.7777 20.2221 35.7777C20.2221 35.7777 21.7777 49.7777 21.7777 52.8888C21.7777 55.9999 18.6666 55.9999 17.111 54.4444C15.5555 52.8888 10.8888 45.1111 10.8888 45.1111C10.8888 45.1111 3.11102 40.4444 1.55546 38.8888C-9.08057e-05 37.3333 -9.08057e-05 34.2222 3.11102 34.2222ZM6.22213 9.39394C10.8888 9.33327 45.111 10.8888 45.111 10.8888C45.111 10.8888 46.5484 45.1111 46.6075 49.7777C46.6666 54.4444 42.3095 56.003 40.5999 49.7793C38.8904 43.5555 32.6666 23.3333 32.6666 23.3333C32.6666 23.3333 10.9588 16.4624 6.21435 15.3968C-9.09911e-05 13.9999 1.55391 9.45305 6.22213 9.39394Z" fill="#55ACEE"/>
<path d="M41.9998 4.66668C45.1109 1.55556 52.8887 8.97055e-06 54.4442 1.55556C55.9998 3.11112 54.4442 10.8889 51.3331 14C48.222 17.1111 21.7776 42 21.7776 42C21.7776 42 11.6665 49 9.33312 46.6667C6.99979 44.3333 13.9998 34.2222 13.9998 34.2222C13.9998 34.2222 38.8887 7.77779 41.9998 4.66668Z" fill="#CCD6DD"/>
<path d="M21.7777 34.2222C21.7777 34.2222 22.5554 35 15.5554 42C8.55544 49 7.77766 48.2222 7.77766 48.2222C7.77766 48.2222 6.99989 47.4444 13.9999 40.4444C20.9999 33.4444 21.7777 34.2222 21.7777 34.2222ZM45.111 6.22218C46.3487 6.22218 47.5357 6.71385 48.4108 7.58902C49.286 8.46419 49.7777 9.65117 49.7777 10.8888H51.0299C51.2072 10.3988 51.3332 9.88551 51.3332 9.33329C51.3332 8.09562 50.8416 6.90863 49.9664 6.03346C49.0912 5.15829 47.9042 4.66663 46.6666 4.66663C46.1143 4.66663 45.601 4.79263 45.111 4.96996V6.22218Z" fill="#66757F"/>
</g>
<defs>
<clipPath id="clip0_1302_3862">
<rect width="56" height="56" fill="white"/>
</clipPath>
</defs>
</svg>
