<svg width="133" height="30" viewBox="0 0 133 30" fill="none" xmlns="http://www.w3.org/2000/svg">
<path d="M10.456 23.384C9.624 23.384 8.856 23.2667 8.152 23.032C7.46933 22.8187 6.85067 22.4987 6.296 22.072C5.76267 21.6453 5.304 21.144 4.92 20.568H4.856L4.504 23H0.76V0.279999H5.08V9.272C5.592 8.58933 6.28533 8.00267 7.16 7.512C8.03467 7 9.112 6.744 10.392 6.744C11.9067 6.744 13.24 7.10667 14.392 7.832C15.544 8.55733 16.44 9.54933 17.08 10.808C17.7413 12.0453 18.072 13.4747 18.072 15.096C18.072 16.6747 17.7413 18.0933 17.08 19.352C16.44 20.6107 15.544 21.6027 14.392 22.328C13.2613 23.032 11.9493 23.384 10.456 23.384ZM9.336 19.736C10.1893 19.736 10.936 19.5333 11.576 19.128C12.2373 18.7227 12.7493 18.1787 13.112 17.496C13.496 16.792 13.688 15.9813 13.688 15.064C13.688 14.1467 13.496 13.336 13.112 12.632C12.7493 11.928 12.2373 11.384 11.576 11C10.936 10.5947 10.1893 10.392 9.336 10.392C8.48267 10.392 7.72533 10.5947 7.064 11C6.40267 11.384 5.89067 11.928 5.528 12.632C5.16533 13.336 4.984 14.1467 4.984 15.064C4.984 15.9813 5.16533 16.792 5.528 17.496C5.89067 18.1787 6.40267 18.7227 7.064 19.128C7.72533 19.5333 8.48267 19.736 9.336 19.736ZM25.298 23.384C23.9967 23.384 22.9193 23.1707 22.066 22.744C21.2127 22.3173 20.5833 21.7413 20.178 21.016C19.7727 20.2907 19.57 19.4907 19.57 18.616C19.57 17.6347 19.8153 16.7707 20.306 16.024C20.818 15.2773 21.586 14.7013 22.61 14.296C23.634 13.8693 24.9247 13.656 26.482 13.656H30.482C30.482 12.8667 30.3647 12.2267 30.13 11.736C29.9167 11.224 29.5753 10.84 29.106 10.584C28.658 10.328 28.082 10.2 27.378 10.2C26.546 10.2 25.8313 10.392 25.234 10.776C24.658 11.1387 24.2953 11.704 24.146 12.472H19.954C20.082 11.2987 20.466 10.2853 21.106 9.432C21.7673 8.57867 22.642 7.91733 23.73 7.448C24.818 6.97867 26.034 6.744 27.378 6.744C28.914 6.744 30.2367 7 31.346 7.512C32.4553 8.00267 33.3087 8.73867 33.906 9.72C34.5033 10.68 34.802 11.8533 34.802 13.24V23H31.186L30.706 20.536H30.642C30.3647 20.984 30.0447 21.3893 29.682 21.752C29.3193 22.0933 28.914 22.392 28.466 22.648C28.0393 22.8827 27.5593 23.064 27.026 23.192C26.4927 23.32 25.9167 23.384 25.298 23.384ZM26.514 20.056C27.09 20.056 27.602 19.96 28.05 19.768C28.498 19.5547 28.8713 19.2773 29.17 18.936C29.49 18.5947 29.7353 18.2 29.906 17.752C30.098 17.2827 30.226 16.8027 30.29 16.312H26.962C26.3007 16.312 25.7567 16.3973 25.33 16.568C24.9247 16.7173 24.626 16.9413 24.434 17.24C24.242 17.5173 24.146 17.848 24.146 18.232C24.146 18.616 24.242 18.9467 24.434 19.224C24.626 19.5013 24.9033 19.7147 25.266 19.864C25.6287 19.992 26.0447 20.056 26.514 20.056ZM36.9628 23V7.128H40.7068L41.0588 9.752H41.1228C41.6348 8.83467 42.3388 8.10933 43.2348 7.576C44.1308 7.02133 45.2294 6.744 46.5308 6.744C47.8534 6.744 48.9734 7.032 49.8908 7.608C50.8081 8.16267 51.5014 8.984 51.9708 10.072C52.4614 11.16 52.7068 12.504 52.7068 14.104V23H48.4188V14.488C48.4188 13.1653 48.1521 12.152 47.6188 11.448C47.0854 10.744 46.2321 10.392 45.0588 10.392C44.3334 10.392 43.6828 10.5733 43.1068 10.936C42.5521 11.2773 42.1041 11.7787 41.7628 12.44C41.4428 13.08 41.2828 13.8693 41.2828 14.808V23H36.9628ZM67.3897 29.72V20.856C66.8777 21.5387 66.1844 22.136 65.3097 22.648C64.4351 23.1387 63.3577 23.384 62.0777 23.384C60.5631 23.384 59.2297 23.0213 58.0777 22.296C56.9257 21.5707 56.0191 20.5787 55.3577 19.32C54.7177 18.0613 54.3977 16.6427 54.3977 15.064C54.3977 13.4427 54.7177 12.0133 55.3577 10.776C56.0191 9.51733 56.9151 8.536 58.0457 7.832C59.1977 7.10667 60.5204 6.744 62.0137 6.744C62.8457 6.744 63.6031 6.86133 64.2857 7.096C64.9897 7.30933 65.6084 7.62933 66.1417 8.056C66.6964 8.46133 67.1657 8.96267 67.5497 9.56H67.6137L67.9657 7.128H71.7097V29.72H67.3897ZM63.1337 19.736C63.9871 19.736 64.7444 19.544 65.4057 19.16C66.0671 18.7547 66.5791 18.2 66.9417 17.496C67.3044 16.792 67.4857 15.9813 67.4857 15.064C67.4857 14.1467 67.3044 13.3467 66.9417 12.664C66.5791 11.96 66.0671 11.4053 65.4057 11C64.7444 10.5947 63.9764 10.392 63.1017 10.392C62.2697 10.392 61.5231 10.5947 60.8617 11C60.2004 11.4053 59.6884 11.96 59.3257 12.664C58.9631 13.3467 58.7817 14.1467 58.7817 15.064C58.7817 15.9813 58.9631 16.792 59.3257 17.496C59.6884 18.2 60.2004 18.7547 60.8617 19.16C61.5231 19.544 62.2804 19.736 63.1337 19.736ZM80.1518 23.384C78.8504 23.384 77.7304 23.1067 76.7918 22.552C75.8744 21.9973 75.1704 21.176 74.6798 20.088C74.2104 18.9787 73.9758 17.624 73.9758 16.024V7.128H78.2638V15.64C78.2638 16.9627 78.5304 17.976 79.0638 18.68C79.5971 19.384 80.4504 19.736 81.6238 19.736C82.3491 19.736 82.9998 19.5653 83.5758 19.224C84.1518 18.8613 84.5998 18.36 84.9198 17.72C85.2398 17.0587 85.3998 16.2587 85.3998 15.32V7.128H89.7198V23H85.9758L85.6238 20.408H85.5598C85.0691 21.304 84.3651 22.0293 83.4478 22.584C82.5518 23.1173 81.4531 23.384 80.1518 23.384ZM99.8907 23.384C98.2694 23.384 96.8294 23.0427 95.5707 22.36C94.3334 21.6773 93.3627 20.7173 92.6587 19.48C91.9547 18.2427 91.6027 16.824 91.6027 15.224C91.6027 13.56 91.9441 12.0987 92.6267 10.84C93.3307 9.56 94.3014 8.55733 95.5387 7.832C96.7974 7.10667 98.2587 6.744 99.9227 6.744C101.501 6.744 102.888 7.08533 104.083 7.768C105.299 8.45067 106.237 9.38933 106.899 10.584C107.581 11.7573 107.923 13.0907 107.923 14.584C107.923 14.7973 107.923 15.0427 107.923 15.32C107.923 15.576 107.901 15.8427 107.859 16.12H94.6747V13.464H103.539C103.475 12.4827 103.101 11.6933 102.419 11.096C101.757 10.4987 100.925 10.2 99.9227 10.2C99.1761 10.2 98.4934 10.3707 97.8747 10.712C97.2561 11.032 96.7654 11.5227 96.4027 12.184C96.0401 12.8453 95.8587 13.688 95.8587 14.712V15.64C95.8587 16.5147 96.0294 17.272 96.3707 17.912C96.7121 18.5307 97.1814 19.0107 97.7787 19.352C98.3974 19.6933 99.0907 19.864 99.8587 19.864C100.648 19.864 101.309 19.6933 101.843 19.352C102.376 18.9893 102.781 18.5307 103.059 17.976H107.475C107.155 18.9787 106.643 19.896 105.939 20.728C105.235 21.5387 104.371 22.1893 103.347 22.68C102.323 23.1493 101.171 23.384 99.8907 23.384ZM117.462 23.384C115.841 23.384 114.401 23.0427 113.142 22.36C111.905 21.6773 110.934 20.7173 110.23 19.48C109.526 18.2427 109.174 16.824 109.174 15.224C109.174 13.56 109.515 12.0987 110.198 10.84C110.902 9.56 111.873 8.55733 113.11 7.832C114.369 7.10667 115.83 6.744 117.494 6.744C119.073 6.744 120.459 7.08533 121.654 7.768C122.87 8.45067 123.809 9.38933 124.47 10.584C125.153 11.7573 125.494 13.0907 125.494 14.584C125.494 14.7973 125.494 15.0427 125.494 15.32C125.494 15.576 125.473 15.8427 125.43 16.12H112.246V13.464H121.11C121.046 12.4827 120.673 11.6933 119.99 11.096C119.329 10.4987 118.497 10.2 117.494 10.2C116.747 10.2 116.065 10.3707 115.446 10.712C114.827 11.032 114.337 11.5227 113.974 12.184C113.611 12.8453 113.43 13.688 113.43 14.712V15.64C113.43 16.5147 113.601 17.272 113.942 17.912C114.283 18.5307 114.753 19.0107 115.35 19.352C115.969 19.6933 116.662 19.864 117.43 19.864C118.219 19.864 118.881 19.6933 119.414 19.352C119.947 18.9893 120.353 18.5307 120.63 17.976H125.046C124.726 18.9787 124.214 19.896 123.51 20.728C122.806 21.5387 121.942 22.1893 120.918 22.68C119.894 23.1493 118.742 23.384 117.462 23.384ZM129.433 23.16C128.644 23.16 128.004 22.9253 127.513 22.456C127.023 21.9653 126.777 21.3787 126.777 20.696C126.777 19.992 127.023 19.3947 127.513 18.904C128.004 18.4133 128.644 18.168 129.433 18.168C130.201 18.168 130.831 18.4133 131.321 18.904C131.812 19.3947 132.057 19.992 132.057 20.696C132.057 21.3787 131.812 21.9653 131.321 22.456C130.831 22.9253 130.201 23.16 129.433 23.16Z" fill="#5BB5A2"/>
</svg>
